<?xml version="1.0" encoding="UTF-8" standalone="no"?>
<svg
   xmlns:dc="http://purl.org/dc/elements/1.1/"
   xmlns:cc="http://creativecommons.org/ns#"
   xmlns:rdf="http://www.w3.org/1999/02/22-rdf-syntax-ns#"
   xmlns:svg="http://www.w3.org/2000/svg"
   xmlns="http://www.w3.org/2000/svg"
   xmlns:sodipodi="http://sodipodi.sourceforge.net/DTD/sodipodi-0.dtd"
   xmlns:inkscape="http://www.inkscape.org/namespaces/inkscape"
   version="1.1"
   id="icon-users"
   x="0px"
   y="0px"
   width="50px"
   height="50px"
   viewBox="0 0 50 50"
   enable-background="new 0 0 50 50"
   xml:space="preserve"
   inkscape:version="0.91 r13725"
   sodipodi:docname="icon.svg"><metadata
     id="metadata3474"><rdf:RDF><cc:Work
         rdf:about=""><dc:format>image/svg+xml</dc:format><dc:type
           rdf:resource="http://purl.org/dc/dcmitype/StillImage" /><dc:title></dc:title></cc:Work></rdf:RDF></metadata><defs
     id="defs3472"><linearGradient
       y2="1"
       id="svg_1"><stop
         id="stop4766"
         offset="0"
         stop-color="#e8e8e8" /><stop
         id="stop4768"
         offset="1"
         stop-color="#171717" /></linearGradient><linearGradient
       spreadMethod="pad"
       x2="1"
       y1="0"
       x1="0"
       y2="1"
       id="svg_2"><stop
         id="stop4771"
         offset="0"
         stop-color="#e8e8e8" /><stop
         id="stop4773"
         offset="1"
         stop-color="#171717" /></linearGradient><linearGradient
       spreadMethod="pad"
       x2="1"
       y1="0.363281"
       x1="0.488281"
       y2="1"
       id="svg_3"><stop
         id="stop4776"
         offset="0"
         stop-color="#e8e8e8" /><stop
         id="stop4778"
         offset="1"
         stop-color="#171717" /></linearGradient><linearGradient
       spreadMethod="pad"
       x2="1"
       y1="0"
       x1="0"
       y2="1"
       id="svg_4"><stop
         id="stop4781"
         offset="0"
         stop-opacity="0.996094"
         stop-color="#efefef" /><stop
         id="stop4783"
         offset="1"
         stop-opacity="0.996094"
         stop-color="#828282" /></linearGradient><linearGradient
       spreadMethod="pad"
       x2="1"
       y1="0"
       x1="0"
       y2="1"
       id="svg_5"><stop
         id="stop4786"
         offset="0"
         stop-opacity="0.992188"
         stop-color="#ffffff" /><stop
         id="stop4788"
         offset="1"
         stop-opacity="0.996094"
         stop-color="#828282" /></linearGradient><linearGradient
       spreadMethod="pad"
       x2="1"
       y1="0"
       x1="0"
       y2="1"
       id="svg_6"><stop
         id="stop4791"
         offset="0"
         stop-opacity="0.992188"
         stop-color="#ffffff" /><stop
         id="stop4793"
         offset="1"
         stop-opacity="0.996094"
         stop-color="#828282" /><stop
         id="stop4795"
         offset="1"
         stop-opacity="0.996094"
         stop-color="#828282" /></linearGradient><linearGradient
       spreadMethod="pad"
       x2="1"
       y1="0"
       x1="0"
       y2="1"
       id="svg_7"><stop
         id="stop4798"
         offset="0"
         stop-opacity="0.988281"
         stop-color="#ffffff" /><stop
         id="stop4800"
         offset="1"
         stop-opacity="0.992188"
         stop-color="#cccccc" /><stop
         id="stop4802"
         offset="1"
         stop-opacity="0.996094"
         stop-color="#828282" /><stop
         id="stop4804"
         offset="1"
         stop-opacity="0.996094"
         stop-color="#828282" /><stop
         id="stop4806"
         offset="1"
         stop-opacity="0.996094"
         stop-color="#828282" /></linearGradient><linearGradient
       spreadMethod="pad"
       x2="1"
       y1="0"
       x1="0"
       y2="1"
       id="svg_8"><stop
         id="stop4809"
         offset="0"
         stop-opacity="0.988281"
         stop-color="#ffffff" /><stop
         id="stop4811"
         offset="1"
         stop-opacity="0.992188"
         stop-color="#cccccc" /><stop
         id="stop4813"
         offset="1"
         stop-opacity="0.992188"
         stop-color="#cccccc" /><stop
         id="stop4815"
         offset="1"
         stop-opacity="0.996094"
         stop-color="#828282" /><stop
         id="stop4817"
         offset="1"
         stop-opacity="0.996094"
         stop-color="#828282" /><stop
         id="stop4819"
         offset="1"
         stop-opacity="0.996094"
         stop-color="#828282" /></linearGradient><linearGradient
       id="svg_9"><stop
         id="stop4822"
         offset="0"
         stop-color="#ffffff" /><stop
         id="stop4824"
         offset="1"
         stop-color="#000000" /></linearGradient><linearGradient
       id="svg_10"><stop
         id="stop4827"
         offset="0"
         stop-color="#ffffff" /><stop
         id="stop4829"
         offset="1"
         stop-opacity="0.996094"
         stop-color="#dddddd" /></linearGradient><linearGradient
       y2="1"
       x2="1"
       y1="0"
       x1="0"
       id="svg_11"><stop
         id="stop4832"
         offset="0"
         stop-color="#ffffff" /><stop
         id="stop4834"
         offset="1"
         stop-opacity="0.996094"
         stop-color="#dddddd" /></linearGradient><linearGradient
       y2="1"
       x2="1"
       y1="0"
       x1="0"
       id="svg_12"><stop
         id="stop4837"
         offset="0"
         stop-color="#ffffff" /><stop
         id="stop4839"
         offset="1"
         stop-opacity="0.992188"
         stop-color="#f2f2f2" /></linearGradient><linearGradient
       y2="1"
       x2="1"
       id="svg_13"><stop
         id="stop4842"
         offset="0"
         stop-opacity="0.996094"
         stop-color="#ffffff" /><stop
         id="stop4844"
         offset="1"
         stop-opacity="0.996094"
         stop-color="#c1c1c1" /></linearGradient><linearGradient
       y1="0"
       x1="0"
       y2="1"
       x2="1"
       id="svg_14"><stop
         id="stop4847"
         offset="0"
         stop-opacity="0.996094"
         stop-color="#ffffff" /><stop
         id="stop4849"
         offset="1"
         stop-opacity="0.996094"
         stop-color="#c1c1c1" /></linearGradient><linearGradient
       y2="1"
       x2="1"
       id="svg_16"><stop
         id="stop4857"
         offset="0"
         stop-color="#ffffff" /><stop
         id="stop4859"
         offset="1"
         stop-color="#000000" /></linearGradient><linearGradient
       y1="0"
       x1="0"
       y2="1"
       x2="1"
       id="svg_17"><stop
         id="stop4862"
         offset="0"
         stop-color="#ffffff" /><stop
         id="stop4864"
         offset="1"
         stop-opacity="0.996094"
         stop-color="#e0e0e0" /></linearGradient><linearGradient
       y1="0"
       x1="0"
       y2="1"
       x2="1"
       id="svg_18"><stop
         id="stop4867"
         offset="0"
         stop-color="#ffffff" /><stop
         id="stop4869"
         offset="1"
         stop-opacity="0.992188"
         stop-color="#cecece" /></linearGradient></defs><sodipodi:namedview
     pagecolor="#ffffff"
     bordercolor="#666666"
     borderopacity="1"
     objecttolerance="10"
     gridtolerance="10"
     guidetolerance="10"
     inkscape:pageopacity="0"
     inkscape:pageshadow="2"
     inkscape:window-width="1920"
     inkscape:window-height="1017"
     id="namedview3470"
     showgrid="false"
     inkscape:zoom="8.4800001"
     inkscape:cx="12.849387"
     inkscape:cy="18.306829"
     inkscape:window-x="-8"
     inkscape:window-y="183"
     inkscape:window-maximized="1"
     inkscape:current-layer="icon-users"
     showguides="false"
     inkscape:guide-bbox="true"
     inkscape:snap-text-baseline="true"><sodipodi:guide
       position="-5.003114,59.537057"
       orientation="0,1"
       id="guide4280" /><sodipodi:guide
       position="-10.339769,50.698222"
       orientation="0,1"
       id="guide4282" /><sodipodi:guide
       position="-6.1705073,57.535811"
       orientation="0,1"
       id="guide4284" /><sodipodi:guide
       position="-6.5040482,52.532697"
       orientation="0,1"
       id="guide4286" /><sodipodi:guide
       position="1.0006228,54.533943"
       orientation="0,1"
       id="guide4288" /><sodipodi:guide
       position="39.386793,38.502359"
       orientation="1,0"
       id="guide4292" /><sodipodi:guide
       position="12.264151,32.783019"
       orientation="1,0"
       id="guide4294" /><inkscape:grid
       type="xygrid"
       id="grid4268" /><sodipodi:guide
       position="-6.4206629,25.766037"
       orientation="1,0"
       id="guide6030" /></sodipodi:namedview><linearGradient
     id="SVGID_1_"
     gradientUnits="userSpaceOnUse"
     x1="1095.707"
     y1="1590.3262"
     x2="1107.9801"
     y2="1615.3397"
     gradientTransform="matrix(1 0 0 1 -1090.3984 -1581.9609)"><stop
       offset="0"
       style="stop-color:#EAECEE"
       id="stop3451" /><stop
       offset="1"
       style="stop-color:#D7D8DA"
       id="stop3453" /></linearGradient><linearGradient
     id="SVGID_2_"
     gradientUnits="userSpaceOnUse"
     x1="1121.2383"
     y1="1585.1426"
     x2="1137.368"
     y2="1618.0168"
     gradientTransform="matrix(1 0 0 1 -1090.3984 -1581.9609)"><stop
       offset="0"
       style="stop-color:#EAECEE"
       id="stop3458" /><stop
       offset="1"
       style="stop-color:#D7D8DA"
       id="stop3460" /></linearGradient><text
     xml:space="preserve"
     style="font-style:normal;font-weight:normal;font-size:40px;line-height:125%;font-family:sans-serif;letter-spacing:0px;word-spacing:0px;fill:#000000;fill-opacity:1;stroke:none;stroke-width:1px;stroke-linecap:butt;stroke-linejoin:miter;stroke-opacity:1"
     x="9.375"
     y="18.867926"
     id="text4739"
     sodipodi:linespacing="125%"><tspan
       sodipodi:role="line"
       id="tspan4741"
       x="9.375"
       y="18.867926" /></text>
<text
     xml:space="preserve"
     style="font-style:normal;font-weight:normal;font-size:40px;line-height:125%;font-family:sans-serif;letter-spacing:0px;word-spacing:0px;fill:#000000;fill-opacity:1;stroke:none;stroke-width:1px;stroke-linecap:butt;stroke-linejoin:miter;stroke-opacity:1"
     x="-0.94339621"
     y="20.636791"
     id="text4743"
     sodipodi:linespacing="125%"><tspan
       sodipodi:role="line"
       id="tspan4747"
       x="-0.94339621"
       y="20.636791" /></text>
<g
     id="g4257"
     transform="translate(2.0392563,-0.5820693)" /><g
     id="g4883"
     transform="translate(0,-0.80440146)" /><g
     id="g6008"
     transform="translate(0.08338523,5.0031139)" /><g
     id="g6032"
     transform="translate(0.11320757,-0.05896226)"><g
       id="g6014"
       transform="matrix(1.5927843,0,0,1,-3.9611862,14.760813)" /><g
       transform="matrix(1.5927843,0,0,1,-3.9611862,17.137293)"
       id="g6022" /><g
       id="g6026"
       transform="matrix(1.5927843,0,0,1,-3.9611862,19.513772)" /></g><g
     id="g10"
     transform="matrix(0.07115338,0,0,-0.07115338,7.993623,42.066118)"><g
       id="g12"
       transform="scale(0.1,0.1)"><path
         d="M 4684.19,1421.33 C 4680.31,1408.64 4313.72,-0.425781 2873.36,0 1628.25,0.371094 1038.1,1082.63 1038.1,1082.63 c -90.748,-5.06 -178.307,9.35 -259.061,39.01 -365.305,134.21 -540.574,552.12 -414.539,902.75 l -200.77,153.43 c -777.718,592.45 1425.42,3303.51 2204.49,2690.06 3.94,-3.1 185.98,-149.62 185.98,-149.62 279.72,169.87 556.75,261.7 781.95,261.71 159.92,0.01 293.66,-46.28 383.74,-143.81 202.21,-218.95 129.53,-637.03 -146.59,-1060.32 59.39,-56.38 108.61,-133.02 143.74,-209.08 87.79,-67.74 144.68,-170.7 172.95,-312.92 31.48,-158.13 38.01,-383.37 57.77,-480.15 74.45,-33.61 42.74,-18.06 122.12,-57.71 82.78,-41.38 183.58,-91.75 294.98,-198.94 198.02,-49.61 273.62,-260.14 157.76,-403.81 -3.11,-3.86 -17.1,-20.43 -31.58,-36.93 3.46,-9.11 41.43,-70.65 68.84,-195.92 82.05,-19.37 147.41,-69.9 181.71,-143.15 59.33,-143.39 -57.4,-315.9 -57.4,-315.9 z m -570.98,-1064.142 0,-58.981 22.58,0 0,58.981 23.1,0 0,18.609 -68.49,0 0,-18.609 22.81,0 z m 52.59,18.609 0,-77.59 20.61,0 0,56.02 16.83,-56.02 17.56,0 16.83,56.168 0,-56.168 20.6,0 0,77.59 -32.21,0 -13.91,-44.656 -14.11,44.656 -32.2,0"
         style="fill:#61423f;fill-opacity:1;fill-rule:nonzero;stroke:none"
         id="path14"
         inkscape:connector-curvature="0" /><path
         d="m 1331.93,1951.56 0,0 c 31.36,79.73 47.17,145.17 47.17,145.17 35.91,-109.78 54.29,-225.24 47.08,-341.96 l 0,0 c 29.77,39.62 61.72,114.21 61.72,114.21 55.38,-326.02 -182.53,-624.44 -495.978,-624.44 -278.289,0 -503.879,237.49 -503.879,530.45 0,292.96 225.59,530.45 503.879,530.45 72.128,0 140.738,-15.96 202.778,-44.71 0,0.02 107.1,-53.99 137.23,-309.17 z M 4073.84,801.91 c 390.61,306.92 458.86,676.56 465.36,689.3 96.12,115.27 69.99,228.85 -56.99,228.86 -40.4,0 -70.92,-10.66 -70.92,-10.66 0,0 0.47,168.21 -77.34,299.22 -59.98,-67.46 -226.49,-201.1 -444.96,-304.82 -204.87,-97.26 -478.25,-182.45 -817.03,-193.73 l -0.01,0 c -94.85,-4.12 -153.54,11.33 -186.58,-99.26 -10.55,-39.07 -5.98,-97.12 1.95,-113.89 26.73,-91.6 96.54,-131.97 188.45,-153.35 69.68,-16.24 143.69,-17.76 143.69,-17.76 687.08,-19.27 1238.79,516.59 1245.38,521.05 6.38,5.23 11.67,11.42 11.67,11.42 0,0 -6.06,-14.22 -6.79,-15.82 -99.23,-223.17 -673.82,-627.88 -1245.74,-616.29 l -1.87,-0.66 c -132.65,0.5 -293.8,34.64 -377.58,138.53 -132.55,164.37 -63.76,437.68 147.5,444.09 0.27,0.01 48.84,1.13 70.47,1.68 523.09,16.07 992.44,208.26 1328.5,609.57 46.21,57.41 -5.41,136.27 -105.56,138.66 -0.87,0.02 -1.73,0.41 -2.32,1.05 -118.75,127.13 -223.12,172.05 -315.99,219.25 -194.68,99.17 -176.36,13.51 -221.65,494.56 -12.25,129.68 -36.81,306.55 -150.74,374.36 -29.87,17.78 -62.51,25.41 -96.39,25.41 -33.49,0 -49.81,-6.84 -56.4,-8.3 -62.4,-13.83 -97.89,-49.2 -142.34,-90.19 -210.06,-193.71 -377.96,-141.12 -628.56,-138.9 -235.36,2.05 -443.16,-162.13 -482.91,-414.25 l -0.07,-0.14 c -19.32,-131.98 -6.81,-266.08 13.88,-326.36 0,0 -63.89,42.49 -94.33,80.11 36.84,-230.33 246.98,-380.86 246.98,-380.86 -33.1,-7.61 -80.71,-4.45 -80.71,-4.45 0.2,-0.18 119.94,-94.87 223.87,-127.91 -27.06,-16.86 -164.06,-152.03 -234.71,-338.12 -66.1,-174.15 -39.17,-383.22 -39.17,-383.22 l 57.41,85.59 c 0,0 -37.49,-190.75 35.08,-375.48 24.08,54.96 76.69,153.05 76.69,153.05 0,0 -8.34,-204.852 90.28,-372.578 2.54,38.711 17.33,137.262 17.33,137.262 0,0 56.6,-174.875 187.32,-297.161 244.72,-217.164 892.69,-256.386 1385.85,131.137"
         style="fill:#f5daaf;fill-opacity:1;fill-rule:nonzero;stroke:none"
         id="path16"
         inkscape:connector-curvature="0" /><path
         d="m 439.938,2173.63 c -1.981,0.54 -189.606,138.23 -216.29,183.56 -157.8628,266.4 116.778,813.56 312.211,1124.58 482.991,768.67 1286.901,1375.28 1652.031,1288.65 l 374.97,-193.54 c -145.59,-85.65 -286.4,-190.84 -370.76,-260.79 l -79.78,-66.92 c 0,0 -233.01,-156.86 -348.89,-255.75 C 1298.89,3597.03 841.5,2983.39 671.879,2391.05 c 0,0.02 -139.363,-69.16 -231.941,-217.42"
         style="fill:#3a87c6;fill-opacity:1;fill-rule:nonzero;stroke:none"
         id="path18"
         inkscape:connector-curvature="0" /><path
         d="m 2187.91,4770.43 0,0 c -365.15,86.64 -1169.05,-519.98 -1652.039,-1288.64 -0.137,-0.23 -0.277,-0.45 -0.414,-0.68 l 1.949,-0.21 384.848,-302.97 c 422.556,670.75 953.656,1016.61 968.626,1026.77 l -61.01,410.53 114.31,54.73 229.41,-74.28 -17.55,76.64 31.87,98.11 0,0"
         style="fill:#60bee8;fill-opacity:1;fill-rule:nonzero;stroke:none"
         id="path20"
         inkscape:connector-curvature="0" /><path
         d="m 2562.86,4576.88 -370.76,-260.78 -25.94,-20.29 -328.76,268.61 -7.56,50.8 114.31,54.73 c 5.87,-1.9 220.36,-71.36 229.42,-74.29 l 3.82,142.43 10.5,32.33 100.42,38.49 c 0.14,-0.11 274.17,-231.7 274.55,-232.03"
         style="fill:#fbcf34;fill-opacity:1;fill-rule:nonzero;stroke:none"
         id="path22"
         inkscape:connector-curvature="0" /><path
         d="m 3294.48,4832.64 c -245.18,0 -520.46,-128.95 -731.62,-255.75 -29.63,-17.42 -59.01,-35.67 -87.81,-54.26 l -110.49,92.62 40.14,-139.46 c -15.17,-10.42 -29.99,-20.82 -44.49,-31.14 l -228.29,69.71 151.06,-126.45 c -34.5,-26.14 -65.3,-50.61 -90.87,-71.81 l -362.25,299.12 19.17,-134.06 263.3,-231.98 c 0,0 -233.01,-156.86 -348.89,-255.75 C 1298.9,3597.04 841.512,2983.39 671.891,2391.07 l 9.636,5.42 c 1.313,0.72 2.633,1.33 3.942,2.04 4.719,2.55 9.429,4.97 14.148,7.34 3.024,1.52 6.039,3.07 9.063,4.52 4.859,2.33 9.715,4.49 14.574,6.63 2.863,1.27 5.738,2.61 8.605,3.8 5.262,2.2 10.516,4.2 15.778,6.2 2.426,0.91 4.855,1.92 7.285,2.78 7.66,2.75 15.297,5.29 22.902,7.56 115.321,34.39 272.216,56.52 455.866,-21.48 92.24,232.64 202.42,469.32 376.07,696.74 140.8,184.4 276.15,349.01 438.59,439.56 307.58,288.93 1136.59,595.33 1402.18,329.74 62.81,102.74 117.3,199.98 162.2,321.9 110.82,293.16 112.85,628.82 -318.25,628.82"
         style="fill:#181f2a;fill-opacity:1;fill-rule:nonzero;stroke:none"
         id="path24"
         inkscape:connector-curvature="0" /><path
         d="m 2242.11,4573.48 -54.2,196.95 -31.89,-98.11 19.08,-77.14 67.01,-21.7"
         style="fill:#181f2a;fill-opacity:1;fill-rule:nonzero;stroke:none"
         id="path26"
         inkscape:connector-curvature="0" /><path
         d="m 4411.3,1709.6 c 0,0 0.47,168.22 -77.34,299.22 -59.98,-67.46 -226.48,-201.1 -444.96,-304.82 -204.87,-97.26 -478.25,-182.45 -817.02,-193.73 l -0.02,0 c -94.85,-4.12 -153.53,11.33 -186.58,-99.26 -2.58,-9.53 -4.25,-20.21 -5.2,-31.13 l -0.04,-1.11 c -0.01,0 -0.03,0 -0.04,0 -0.29,-3.52 -0.5,-7.07 -0.65,-10.61 -0.33,-10.1 -0.22,-19.01 0.17,-26.77 0.01,-0.19 0.02,-0.38 0.03,-0.57 0.03,-0.57 0.06,-1.14 0.1,-1.69 0.3,-4.86 0.71,-9.52 1.22,-13.9 0.02,-0.21 0.05,-0.45 0.08,-0.66 0.03,-0.24 0.05,-0.46 0.08,-0.69 2.24,-17.57 5.72,-25.73 6.15,-26.67 0.01,-0.03 0.03,-0.07 0.04,-0.1 l 0.44,-1.47 c 27.04,-90.56 96.6,-130.62 188.01,-151.88 69.68,-16.24 143.7,-17.76 143.7,-17.76 560.59,-15.72 1031.08,338.12 1188.88,471.34 2.7,37.34 4.3,63.97 2.95,112.26 z M 2800.86,4704.11 c 133.92,61.74 277.45,110.53 415.12,124.59 -136.73,-30.76 -303.34,-101.65 -500.73,-222.45 -4.82,-2.78 -467.1,-314.78 -749.53,-594.93 -153.91,-152.66 -771.96,-893.82 -771.47,-893.19 112.95,213.77 187.37,318.71 366.18,543.59 101.13,127.19 209.05,250.88 319.52,365.09 37.14,38.39 74.57,75.71 112.12,111.73 l 0,0 c 14.31,13.73 337.29,344.44 808.79,565.57"
         style="fill:#ffffff;fill-opacity:1;fill-rule:nonzero;stroke:none"
         id="path28"
         inkscape:connector-curvature="0" /><path
         d="m 4073.84,801.91 c -67.06,-52.683 -136.97,-97.465 -208.34,-135.004 -165.05,62.731 -266.33,196.383 -266.33,196.383 0,0 141.5,33.457 330.65,129.645 230.05,116.896 445.04,285.786 609.39,498.286 -6.51,-12.74 -74.76,-382.39 -465.37,-689.31 z m -449.2,1781.81 c -79.84,56.78 -212.06,11.59 -241.22,-82.37 46.2,-2.34 95.22,-37.29 92.2,-82 32.61,31.57 78.99,49.39 124.11,48.56 -21.76,34.89 -10.77,95.06 24.91,115.81 z M 2787,1437.09 c 25.15,93.59 96.18,167.74 205.03,171.05 0.27,0.01 48.84,1.13 70.47,1.68 523.09,16.07 992.44,208.26 1328.5,609.57 46.21,57.41 -5.41,136.27 -105.56,138.66 -0.39,0.01 -1.43,0 -1.43,0 -16.94,-17.9 -19.97,-50.62 -47.99,-99.5 -102.21,-177.59 -243.6,-258.79 -432.13,-353.02 -578.01,-287.76 -877.75,-153.87 -998.05,-330.05 -34.96,-51.86 -35.62,-109.77 -18.84,-138.39 0,-0.02 0,0 0,0 z m 1045.86,1206.9 c -55.28,39.67 -57.25,108.86 -87.38,428.92 -9.64,102.07 -26.93,233.37 -89.41,317.73 -12.92,11.29 -31.08,24.25 -57.24,24.25 -39.47,1.75 -84.08,-39.14 -109.37,-67.09 -71.78,-103.6 -140.36,-170.31 -261.66,-228.13 -122.76,-55.56 -239.42,-75.72 -360.55,-71.89 -88.66,2.8 -166.3,17.4 -242.41,18.37 -141.02,2.21 -263.24,-43.5 -352.32,-155.99 -61.09,-77.14 -85.62,-158.69 -93.43,-255.75 0.29,-11.7 0.82,-22.73 1.49,-33.12 1.05,-15.43 2.46,-30.15 4.16,-43.96 6.22,-49.19 15.1,-74.72 15.1,-74.72 0,-0.38 -0.07,-0.75 -0.18,-1.11 0.74,-2.4 1.48,-4.72 2.25,-6.94 0,0 -63.88,42.49 -94.32,80.12 30.72,-192.02 181.85,-328.58 231.29,-368.7 2.92,-2.23 5.79,-4.46 8.62,-6.68 0.24,-0.2 0.45,-0.42 0.63,-0.66 4.15,-3.19 6.44,-4.84 6.44,-4.84 -33.1,-7.61 -80.71,-4.45 -80.71,-4.45 0.2,-0.17 119.94,-94.87 223.87,-127.91 137.88,116.52 294.21,161.25 422.54,175.13 77.78,48.26 161.41,95.68 251.21,141.39 -27.2,169.33 122.97,339.84 311.92,356.21 142.58,10.38 211.95,-53.53 261.89,-121.87 27.11,8.65 57.69,18.11 91.85,28.16 -1.44,0.96 -2.88,2.14 -4.28,3.53 z m 68.21,-1140.4 c -1.44,-0.04 -2.93,-0.36 -5.3,-0.89 -56.97,-13.2 -644.35,-240.74 -1015.67,-124.11 -1.66,-20.31 -1.13,-63 7.19,-81.56 0.01,-0.03 0.03,-0.07 0.04,-0.1 56.17,-11.27 127.26,-18.47 209.77,-18.47 488.63,0 840.75,222.17 803.97,225.13 z m -2733.61,45.62 c 0.15,0.09 0.28,0.19 0.42,0.29 29.75,31.97 42.24,76.66 35.16,119.39 -10.98,61.5 -80.65,73.92 -126.72,121.67 -0.74,0.76 -1.46,1.53 -2.18,2.3 -0.77,0.85 -1.53,1.7 -2.26,2.54 -0.06,0.05 -0.1,0.12 -0.15,0.17 -20.7,23.84 -27.91,50.95 -26.23,75.14 3.64,62.9 59.5,80.58 88.57,69 0,0 34.48,-8.16 61.19,-45.41 0,0 -0.01,0.07 -0.03,0.15 -4.05,12.3 -3.22,32.15 -24.12,61.74 -34.25,48.52 -112.91,97.87 -224.43,74.25 l 0.023,0 c -20.613,-4.37 -9.066,-1.89 -29.402,-7.62 -3.172,-0.89 -6.071,-1.78 -8.574,-2.82 -6.391,-3 -12.301,-5.05 -17.969,-8.07 l 0,0 c -2.942,-1.63 -19.695,-9.23 -39.86,-24.42 -125.355,-161.8 86.954,-455.24 316.562,-438.3"
         style="fill:#e8b77b;fill-opacity:1;fill-rule:nonzero;stroke:none"
         id="path30"
         inkscape:connector-curvature="0" /><path
         d="m 3015.64,2545.11 c 10.58,-15.47 13.42,-27.16 9.15,-32.02 -8.52,-9.95 -38.98,3.5 -83.94,21.01 -115.09,42.94 -199.88,49.48 -349.97,-7.34 -37.95,-14.47 -64.86,-25.66 -77.77,-23.73 -21.05,3.13 -0.67,41.66 45.34,79.04 92.55,73.84 219.68,96.75 328.31,56.32 47.55,-17.5 100.95,-52.43 128.88,-93.28 z m -22.8,-117.72 c -31.55,24.09 -89.65,40.25 -149.97,30 -12.66,-1.92 -24.35,-5.84 -35.85,-8.93 -4.22,-1.05 -8.26,-2.54 -12.19,-4.19 -24.94,-10.5 -46.53,-21.82 -67.48,-41.9 -24.03,-23.24 -30.86,-44.81 -23.92,-50.11 6.83,-5.46 23.47,2.62 49.18,13.02 86.14,35.81 147.09,36.76 205.16,32.71 28.01,-1.89 46.76,-3.57 51.1,4.06 3.07,5.17 -2.5,15.02 -16.03,25.34 z m -1854.86,-441.76 0.02,-0.03 0.04,-0.02 c 14.13,-11.24 24.98,-23.23 33.06,-34.69 26.49,-37.51 18.06,-59.39 28.93,-70.03 3.92,-3.84 9.52,-5.06 15.11,-2.78 15.02,6.2 22.41,30.09 23.81,46.76 l 0,0 0.01,0.11 0,0 c 3.77,40.09 -17.41,85.13 -45.49,117.06 l 0,0 -0.08,0.08 0,0 c -17.18,19.96 -39.79,38.56 -66.7,53.55 -26.95,15.01 -58.21,26.38 -92.6,31.71 -59.406,9.25 -117.844,-2.59 -134.16,-7.46 l 0.082,0.03 c -8.414,-2.44 -18.809,-4.64 -27.746,-8.14 C 775.371,2074 711.609,2004.63 683.242,1912.77 l -0.008,-0.04 -0.011,-0.04 c -10.493,-34.97 -14.668,-68.74 -14.668,-99.93 0,-26.88 3.097,-51.87 7.933,-74.15 l 0,-0.02 0.012,-0.03 -0.012,0.03 c 8.203,-37.46 24.969,-79.65 51.133,-107.35 l 0,0 0.082,-0.08 0,0 c 32.715,-35.36 68.57,-28.59 53.262,4.3 -3.652,9.11 -23.414,46.34 -26.074,113.75 -1.727,44.11 4.324,90.02 20.515,131.92 8.957,22.67 21.239,44.71 37.219,64.54 32.926,40.28 73.391,58.32 78.121,60.95 l 0,0 c 5.668,3.01 11.578,5.07 17.969,8.06 2.496,1.05 5.39,1.93 8.578,2.83 20.332,5.73 8.797,3.24 29.398,7.61 l -0.019,0 c 77.528,16.44 144.238,-1.53 191.308,-39.49 z m -16.54,-149.7 c -10.71,8.48 -15.68,15.72 -18.63,26.87 -4.38,20.3 -2.1,32.09 15.25,44.27 13.36,9.16 24.12,13.57 24.15,19.32 0.61,10.88 -44.09,22.08 -75.33,-8.68 -25.95,-27.64 -34.14,-85.26 7.25,-130.17 46.08,-49.73 117.74,-61.45 128.9,-123.97 1.47,-8.86 2.56,-18.73 1.79,-28.46 0.16,-11.19 -3.58,-27.27 -3.76,-28.29 -13.86,-60.38 -71.17,-118.01 -165.67,-103.32 -17.41,2.54 -28.69,4.68 -32.05,-0.14 -7.285,-10.14 33.21,-56.48 107.35,-54.79 72.54,1.53 144.51,55.85 167.57,137.47 0.26,1.07 7.07,24.21 7.63,44.94 1.31,15.36 0.2,31.16 -2.67,47.69 -18.9,104.82 -123.05,126.36 -161.78,157.26 z m 2528.08,748.34 c -28.66,4.48 -56.87,-23.76 -63.01,-63.08 -6.13,-39.31 12.13,-74.8 40.8,-79.27 28.67,-4.47 56.87,23.76 63.01,63.08 6.13,39.3 -12.13,74.8 -40.8,79.27 z M 3334.56,2469.6 c -15.76,-28.75 3.43,-69.58 42.87,-91.18 39.42,-21.6 84.16,-15.82 99.91,12.94 15.75,28.75 -3.43,69.58 -42.86,91.19 -39.44,21.6 -84.17,15.8 -99.92,-12.95 z M 2180.6,3632.62 c 542.42,351.57 1084.24,392 1269.88,249.27 0,0.02 0.02,0.03 0.03,0.05 -0.34,0.94 -3.33,9.17 -4.49,11.43 l 0,0 c -47.13,100.15 -157.11,170.02 -255.07,198.04 17.18,-17.85 42.04,-50.53 52.1,-69.95 -73.94,50.78 -172.18,95.51 -274.72,116.76 0,0 12.22,-8.78 14.31,-10.73 20.44,-19.03 47.63,-49.11 58.76,-74.94 -97.99,39.34 -221.88,61.4 -327.93,40.97 -1.48,-0.28 -13.25,-3.06 -13.25,-3.06 0,0 13.8,-3.43 16.87,-4.35 35.17,-10.43 85.36,-31.86 107.47,-61.23 -176.04,30.97 -369.69,-3.3 -474.14,-61.7 13.44,0.56 13.31,0.61 24.66,0.31 38.42,-1.02 115.82,-6.24 148.32,-26.92 -111.04,-22.57 -271.73,-72.25 -358.24,-146.64 15.28,1.78 101.95,12.82 137.43,7.12 -476.15,-272.46 -692.86,-684.4 -692.86,-684.4 l 0,0 c 140.38,182.93 322.5,358.99 570.87,519.97"
         style="fill:#976a4b;fill-opacity:1;fill-rule:nonzero;stroke:none"
         id="path32"
         inkscape:connector-curvature="0" /><path
         d="m 3460.35,2864.52 c -0.73,37.37 5.18,99.15 40.37,110.63 l 0,0 c 0.05,0.01 0.02,0.01 0.08,0.02 l 0,0 c 60.15,20.87 139.78,-133.17 143.45,-269.94 -47.53,23.79 -103.39,33.89 -160.83,28.92 -14.44,44.02 -21.35,85.5 -23.07,130.37"
         style="fill:#61423f;fill-opacity:1;fill-rule:nonzero;stroke:none"
         id="path34"
         inkscape:connector-curvature="0" /></g></g></svg>